<svg viewBox="0 0 100 100" xmlns="http://www.w3.org/2000/svg">
  <defs>
    <!-- 100 / 17 = 5.88 (approx) -->
    <linearGradient
      id="rainbow"
      spreadMethod="repeat"
      gradientTransform="scale(5.88) rotate(90)"
    >
      <!--red -->
      <stop offset="0%" stop-color="oklch(63.7% 0.237 25.331)" />
      <stop offset="1%" stop-color="oklch(63.7% 0.237 25.331)" />
      <!--orange -->
      <stop offset="1%" stop-color="oklch(70.5% 0.213 47.604)" />
      <stop offset="2%" stop-color="oklch(70.5% 0.213 47.604)" />
      <!--amber -->
      <stop offset="2%" stop-color="oklch(76.9% 0.188 70.08)" />
      <stop offset="3%" stop-color="oklch(76.9% 0.188 70.08)" />
      <!--yellow -->
      <stop offset="3%" stop-color="oklch(79.5% 0.184 86.047)" />
      <stop offset="4%" stop-color="oklch(79.5% 0.184 86.047)" />
      <!--lime -->
      <stop offset="4%" stop-color="oklch(76.8% 0.233 130.85)" />
      <stop offset="5%" stop-color="oklch(76.8% 0.233 130.85)" />
      <!--green -->
      <stop offset="5%" stop-color="oklch(72.3% 0.219 149.579)" />
      <stop offset="6%" stop-color="oklch(72.3% 0.219 149.579)" />
      <!--emerald -->
      <stop offset="6%" stop-color="oklch(69.6% 0.17 162.48)" />
      <stop offset="7%" stop-color="oklch(69.6% 0.17 162.48)" />
      <!-- teal -->
      <stop offset="7%" stop-color="oklch(70.4% 0.14 182.503)" />
      <stop offset="8%" stop-color="oklch(70.4% 0.14 182.503)" />
      <!-- cyan -->
      <stop offset="8%" stop-color="oklch(71.5% 0.143 215.221)" />
      <stop offset="9%" stop-color="oklch(71.5% 0.143 215.221)" />
      <!-- sky -->
      <stop offset="9%" stop-color="oklch(68.5% 0.169 237.323)" />
      <stop offset="10%" stop-color="oklch(68.5% 0.169 237.323)" />
      <!-- blue -->
      <stop offset="10%" stop-color="oklch(62.3% 0.214 259.815)" />
      <stop offset="11%" stop-color="oklch(62.3% 0.214 259.815)" />
      <!-- indigo -->
      <stop offset="11%" stop-color="oklch(58.5% 0.233 277.117)" />
      <stop offset="12%" stop-color="oklch(58.5% 0.233 277.117)" />
      <!-- violet -->
      <stop offset="12%" stop-color="oklch(60.6% 0.25 292.717)" />
      <stop offset="13%" stop-color="oklch(60.6% 0.25 292.717)" />
      <!-- purple -->
      <stop offset="13%" stop-color="oklch(62.7% 0.265 303.9)" />
      <stop offset="14%" stop-color="oklch(62.7% 0.265 303.9)" />
      <!-- fuchsia -->
      <stop offset="14%" stop-color="oklch(66.7% 0.295 322.15)" />
      <stop offset="15%" stop-color="oklch(66.7% 0.295 322.15)" />
      <!-- pink -->
      <stop offset="15%" stop-color="oklch(65.6% 0.241 354.308)" />
      <stop offset="16%" stop-color="oklch(65.6% 0.241 354.308)" />
      <!-- rose -->
      <stop offset="16%" stop-color="oklch(64.5% 0.246 16.439)" />
      <stop offset="17%" stop-color="oklch(64.5% 0.246 16.439)" />
    </linearGradient>
  </defs>

  <symbol viewBox="0 0 256 256" id="arch-logo">
    <path
      d="M128 0c-11.39482 27.937051-18.31337 46.237163-31 73.34375 7.7785 8.245207 17.33826 17.811753 32.84375 28.65625-16.66992-6.859577-28.03357-13.728504-36.53125-20.875C77.076039 115.00489 51.621645 163.24639 0 256c40.562707-23.41756 72.007597-37.86167 101.3125-43.375-1.25376-5.40435-1.923505-11.27752-1.875-17.375l.03125-1.28125c.64379-25.99398 14.16934-45.98224 30.1875-44.625 16.01815 1.35723 28.48754 23.53727 27.84375 49.53125-.12127 4.89622-.6905 9.60082-1.65625 13.96875C184.83328 218.51691 215.98162 232.89667 256 256c-7.89193-14.52962-14.96051-27.61983-21.6875-40.09375-10.59609-8.21269-21.64301-18.89743-44.1875-30.46875 15.4958 4.02645 26.60184 8.6825 35.25 13.875C156.97985 71.972668 151.45422 55.040376 128 0z"
      transform="matrix(1 0 0 1 -.000002 4e-8)"
    />
  </symbol>

  <symbol viewBox="0 0 100 100" id="heart">
    <path
      x1="0.5"
      d="
M 0,30
C 0,60 50,80 50,100
C 50,80 100,60 100,30
C 100,0 50,0 50,30
C 50,0 0,0 0,30
z"
    />
  </symbol>

  <mask id="arch-logo-mask">
    <rect width="100" height="100" fill="white" />
    <use href="#arch-logo" width="30" height="30" x="35" y="35" fill="black" />
  </mask>

  <g fill="url(#rainbow)" mask="url(#arch-logo-mask)">
    <use href="#heart" width="100" height="100" />
  </g>
</svg>
